<svg xmlns="http://www.w3.org/2000/svg" version="1.0" width="560.000000" height="387.000000" preserveAspectRatio="xMidYMid meet" style=""><rect id="backgroundrect" width="100%" height="100%" x="0" y="0" fill="none" stroke="none"/>
<metadata>
Created by potrace 1.16, written by Peter Selinger 2001-2019
</metadata>

<g class="currentLayer" style=""><title>Layer 1</title><g transform="translate(0,387) scale(0.10000000149011612,-0.10000000149011612) " fill="#484848" stroke="none" id="svg_1" class="" fill-opacity="1">
<path d="M231.26318359375,3455.368423461914 c-3,-13 -6,-538 -6,-1168 c0,-1256 1,-1262 59,-1384 c63,-133 129,-176 269,-176 c66,0 93,4 102,15 c6,8 22,17 33,21 c46,15 99,81 130,165 c16,42 17,104 14,740 c-2,382 -6,707 -9,723 c-9,42 -29,86 -39,86 c-5,0 -9,6 -9,13 c0,38 -158,146 -215,147 c-51,1 -50,-10 -52,427 l-2,408 l-134,3 c-133,3 -135,2 -141,-20 zm334,-1786 c0,-401 -4,-643 -10,-652 c-26,-40 -30,32 -30,646 c0,624 2,666 32,648 c4,-3 8,-292 8,-642 z" id="svg_2" fill="#484848" fill-opacity="1"/>
<path d="M3575.26318359375,2017.368423461914 l0,-1320 l865,0 l865,0 l0,1320 l0,1320 l-865,0 l-865,0 l0,-1320 zm648,687 c31,-11 32,-13 32,-69 c0,-81 14,-92 131,-107 c52,-6 139,-14 194,-17 c55,-3 120,-10 145,-15 c25,-5 62,-12 83,-16 c102,-16 0,-22 -375,-20 l-413,3 l-5,59 c-5,53 -5,91 -1,161 c2,41 119,53 209,21 zm620,-290 c19,-3 27,-178 9,-189 c-6,-4 -61,-4 -122,-1 c-132,7 -125,7 -200,-2 c-77,-10 -488,-10 -504,-1 c-12,8 -15,134 -5,174 l7,23 l178,-2 c98,-1 181,0 184,3 c4,4 420,0 453,-5 zm-118,-1192 c0,-102 -4,-143 -15,-165 c-36,-69 -144,-80 -197,-21 c-24,27 -28,40 -28,92 c0,105 38,146 129,137 l51,-5 l0,48 c0,48 1,49 30,49 l30,0 l0,-135 zm-646,30 c28,-18 45,-55 48,-105 l3,-35 l-92,-3 c-51,-1 -93,-7 -93,-12 c0,-25 35,-42 77,-37 c27,3 49,0 60,-9 c48,-35 -75,-71 -136,-39 c-44,22 -64,73 -59,144 c4,45 10,59 37,83 c25,23 41,28 82,28 c28,0 60,-7 73,-15 zm298,4 c11,-6 29,-31 40,-56 c26,-59 18,-121 -22,-166 c-26,-29 -33,-32 -89,-32 l-61,1 l0,-48 c0,-47 -1,-48 -30,-48 l-30,0 l0,130 c0,142 10,185 51,214 c27,18 110,22 141,5 zm599,-8 c22,-18 23,-21 8,-36 c-14,-15 -22,-15 -52,-6 c-39,13 -81,2 -91,-24 c-11,-30 -6,-80 10,-104 c15,-21 22,-23 67,-17 c76,9 102,-20 45,-50 c-42,-22 -111,-14 -144,17 c-53,49 -55,160 -4,211 c24,24 37,28 83,28 c39,0 61,-5 78,-19 z" id="svg_3" fill="#484848" fill-opacity="1"/>
<path d="M4558.26318359375,1191.368423461914 c-21,-21 -25,-32 -20,-65 c7,-52 22,-69 63,-69 c45,0 64,22 64,76 c0,78 -56,109 -107,58 z" id="svg_4" fill="#484848" fill-opacity="1"/>
<path d="M4265.26318359375,1197.368423461914 c-27,-27 -28,-100 -2,-123 c27,-25 78,-22 96,5 c24,34 20,85 -9,113 c-29,30 -58,32 -85,5 z" id="svg_5" fill="#484848" fill-opacity="1"/>
<path d="M1914.26318359375,3007.368423461914 c-74,-22 -119,-86 -119,-168 c0,-38 6,-58 30,-90 c40,-56 73,-71 147,-69 c55,2 65,5 96,35 c19,19 43,52 53,74 c15,34 16,46 6,86 c-17,63 -40,93 -92,120 c-46,23 -76,26 -121,12 z" id="svg_6" fill="#484848" fill-opacity="1"/>
<path d="M1110.26318359375,2993.368423461914 c-40,-17 -82,-67 -94,-113 c-14,-49 10,-131 47,-164 c15,-13 30,-23 35,-21 c4,1 7,-2 7,-7 c0,-28 136,-15 167,15 c7,7 16,14 21,16 c20,8 52,79 52,116 c0,52 -11,79 -46,119 c-47,52 -123,68 -189,39 z" id="svg_7" fill="#484848" fill-opacity="1"/>
<path d="M2781.26318359375,2637.368423461914 c-16,-5 -38,-18 -50,-29 l-22,-20 l-49,25 c-63,32 -148,30 -195,-4 c-29,-22 -30,-22 -30,-2 c0,26 -25,31 -140,28 l-95,-3 l-3,-942 l-2,-943 l110,0 l110,0 l0,782 c0,429 2,783 5,786 c3,3 5,13 5,23 c0,10 9,21 21,24 c49,16 48,28 49,-823 l0,-793 l123,3 l122,3 l2,788 c2,523 6,795 13,808 c14,25 35,24 54,-3 c14,-20 16,-113 16,-810 l0,-788 l63,0 c55,0 70,4 105,30 c77,55 72,-5 72,897 l0,808 l-24,50 c-13,28 -33,58 -44,68 c-45,41 -146,58 -216,37 z" id="svg_8" fill="#484848" fill-opacity="1"/>
<path d="M1567.26318359375,2625.368423461914 c-9,-9 -12,-233 -12,-945 l0,-933 l120,0 l120,0 l0,795 c0,782 0,795 20,815 c18,18 33,20 145,20 l125,0 l0,103 c-1,137 -11,150 -116,154 c-56,2 -86,-3 -121,-18 c-46,-19 -46,-19 -60,1 c-13,18 -25,20 -112,20 c-62,0 -101,-4 -109,-12 z" id="svg_9" fill="#484848" fill-opacity="1"/>
<path d="M1080.26318359375,2606.368423461914 c-62,-25 -118,-78 -153,-144 l-27,-50 l0,-740 l0,-740 l23,-45 c55,-110 141,-160 278,-160 c65,0 94,5 123,20 c52,26 106,91 133,159 c21,52 23,74 25,326 l2,270 l-22,7 c-29,8 -156,10 -196,2 l-31,-6 l0,-247 c0,-135 -4,-251 -8,-257 c-4,-7 -20,-14 -37,-15 l-30,-4 l-3,307 l-2,308 l161,2 l162,3 l-1,409 c-2,408 -2,409 -26,460 c-49,107 -116,150 -241,153 c-62,2 -91,-2 -130,-18 zm144,-228 c10,-7 13,-56 12,-246 c-1,-135 -6,-246 -12,-257 c-15,-28 -55,-23 -63,8 c-9,35 -9,435 0,460 c15,42 35,53 63,35 z" id="svg_10" fill="#484848" fill-opacity="1"/>
<path d="M1882.26318359375,2250.368423461914 c-4,-3 -7,-345 -7,-760 l0,-753 l105,0 l105,0 l0,760 l0,760 l-98,0 c-54,0 -102,-3 -105,-7 z" id="svg_11" fill="#484848" fill-opacity="1"/>
</g></g></svg>